<?xml version="1.0" standalone="no"?><!DOCTYPE svg PUBLIC "-//W3C//DTD SVG 1.1//EN" "http://www.w3.org/Graphics/SVG/1.1/DTD/svg11.dtd"><svg t="1598432903118" class="icon" viewBox="0 0 1638 1024" version="1.1" xmlns="http://www.w3.org/2000/svg" p-id="4158" xmlns:xlink="http://www.w3.org/1999/xlink" width="319.921875" height="200"><defs><style type="text/css"></style></defs><path d="M1635.098752 540.8256c2.4064-123.712-78.016-247.9744-241.1776-342.3744-320.2688-185.2672-837.824-185.2544-1156.0192 0.0128C79.335552 290.7904 0.231552 411.712 0.397952 532.736l-0.0128-1.1776L0.001152 546.2272c-0.3456 122.1888 80.1408 244.5696 241.3056 337.792 320.256 185.2672 837.8112 185.2544 1155.968 0 158.08-92.0448 237.2096-212.4928 237.5552-333.12l0.384-14.6688c0 1.536-0.0896 3.072-0.1152 4.5952z" fill="#FFEB9A" p-id="4159"></path><path d="M1635.201152 536.2432l-0.384 14.656c-0.3328 120.6272-79.4624 241.0752-237.5296 333.12-318.1696 185.2672-835.712 185.2672-1155.968 0C80.154752 790.8096-0.344448 668.416 0.001152 546.24l0.384-14.6688c-0.3456 122.1888 80.1408 244.5696 241.3056 337.792 320.256 185.2672 837.8112 185.2672 1155.968 0 158.08-92.032 237.2096-212.48 237.5424-333.12z" fill="#FFE577" p-id="4160"></path><path d="M1292.301952 476.6592c0 1.5104 0 3.0208-0.0256 4.5312-1.5744 68.9664-47.5136 137.6256-137.92 190.272-184.768 107.5968-485.3248 107.5968-671.3088 0-91.904-53.1712-138.6752-122.6752-140.1088-192.3968-0.0256-0.8064-0.0256-1.6-0.0256-2.4064 0-1.5104 0-3.0208 0.0256-4.5312C345.370752 211.5456 556.954752 1.024 817.613952 1.024c261.3504 0 473.3952 211.648 474.6752 473.216l0.0128 2.4064z" fill="#FFDE56" p-id="4161"></path><path d="M1130.241152 386.0352c-0.2048 52.8768-35.456 105.8304-105.5744 145.92-139.52 79.8464-366.592 79.8464-504.6144 0-67.84-39.2448-101.9776-90.688-102.5664-142.4-0.064-0.9216-0.064-1.8304-0.064-2.688 0-197.1712 159.5776-357.056 356.4416-357.056 195.8784 0 354.8672 158.3872 356.3008 354.2656 0.0768 0.64 0.0768 1.3056 0.0768 1.9456z" fill="#FFEB9A" p-id="4162"></path><path d="M1297.357952 471.2832a484.2112 484.2112 0 0 0-5.376-69.5936c-4.288 66.7136-50.1248 132.6592-137.6256 183.6032-184.7808 107.5968-485.3248 107.5968-671.3088 0-88.3584-51.1104-134.9632-117.312-139.7248-184.2944a483.776 483.776 0 0 0-5.4784 68.1344l-0.0128 4.5824 0.0128 2.432c1.4592 70.4768 48.7168 140.7104 141.6192 194.4448 187.9808 108.7488 491.7376 108.7488 678.5024 0 91.3664-53.2096 137.8048-122.5856 139.392-192.2944 0.0256-1.536 0.0256-3.0592 0.0256-4.5824 0-0.8064 0-1.6256-0.0256-2.432z" fill="#884D01" p-id="4163"></path></svg>